<svg id="Layer_1" data-name="Layer 1" xmlns="http://www.w3.org/2000/svg" viewBox="0 0 600 600"><defs><style>.cls-1{fill:#fff;}</style></defs><title>logo_white_small</title><path class="cls-1" d="M251.13,351.6c0,18.74-9.79,30-26.17,30s-26.17-11.3-26.17-30c0-18.35,10.07-29.93,26.17-29.93s26.17,11.48,26.17,29.93m-41.42.48c0,12.7,5.27,19.48,15.25,19.48s15.25-6.68,15.25-19.48c0-13.18-5.37-20.34-15.25-20.34s-15.25,7.16-15.25,20.34"/><path class="cls-1" d="M269.76,381.2c-9,0-12.46-3.54-12.46-12.8V321.67h9.52v45.95c0,3.37,1.12,4.67,4,4.67h1.9v8.91Z"/><path class="cls-1" d="M314,321.67v59.19h-8.4v-4a15.3,15.3,0,0,1-11.68,4.76c-11.77,0-18.43-8.23-18.43-22.68,0-14,6.4-22.15,17.48-22.15,5.1,0,9,1.56,11.68,4.59V321.67Zm-9.35,38.08c0-9.52-3.29-14.2-9.95-14.2s-9.6,4.42-9.6,13.94S288,372.9,295,372.9c6.66,0,9.6-4,9.6-13.15"/><path class="cls-1" d="M339.63,371.66c6.59,0,10-2.36,10-6.88,0-2.63-1.22-4.42-4.24-6.11a54.3,54.3,0,0,0-7.53-3.21c-2.82-.94-3.2-1.12-4.14-1.5A31.78,31.78,0,0,1,328,351c-4.8-3-7.06-7.06-7.06-12.52,0-10.07,8-16.85,20-16.85a35.36,35.36,0,0,1,16.47,4.42l-2.73,9.14c-5.46-2.36-10.26-3.58-14.31-3.58-5.55,0-8.57,2.26-8.57,6.49,0,3.11,2.07,4.81,9,7.53l2.07.76a64.55,64.55,0,0,1,10.26,4.71c5.18,3.2,7.54,7.43,7.54,13.17,0,10.64-8.2,17.33-21.19,17.33-7.25,0-14.87-2.45-19.77-6.31l3-9.7a28.41,28.41,0,0,0,16.94,6"/><path class="cls-1" d="M383.83,381.2c-11.51,0-17.47-6.05-17.47-18V345.9h-6.57v-8.33h6.57v-9h9.51v9h12.65l-3.64,8.31h-9v16.87c0,6.67,2.77,9.69,8.91,9.69h4.07v8.74Z"/><path class="cls-1" d="M408.52,336.81C421,336.81,428,345,428,359.22s-7.18,22.42-19.47,22.42-19.46-8.31-19.46-22.42c0-14.27,7.09-22.41,19.46-22.41m0,36.09c6.58,0,9.87-4.42,9.87-13.15,0-9.35-3.37-14.2-9.87-14.2s-9.86,4.93-9.86,14.2c0,8.73,3.29,13.15,9.86,13.15"/><path class="cls-1" d="M454.53,336.81c11.07,0,16.7,6.58,16.7,19.56v24.49h-9.52V357.23c0-8.3-2.42-11.68-8.39-11.68-6.58,0-9.35,3.64-9.35,12v23.28h-9.52V337.59h8.4v4.33c2.85-3.55,6.31-5.11,11.68-5.11"/><path class="cls-1" d="M486.13,362.94c.87,6.75,4.42,10,11,10a14.2,14.2,0,0,0,9.61-3.63l4.93,6.58c-4.33,4-9,5.71-15.32,5.71-12.46,0-20-8.31-20-21.89,0-13.94,7.36-22.94,18.87-22.94,6.23,0,11.33,2.69,14.19,7.62,2,3.37,2.94,7.79,2.94,13.58a40.89,40.89,0,0,1-.34,4.93ZM503,355.16c0-3.55-.52-5.37-2-7.1a7.5,7.5,0,0,0-6.06-2.59c-4.93,0-8,3.28-8.83,9.69Z"/><path class="cls-1" d="M516.2,375.36c.44.88.91,1.75,1.4,2.6a1.11,1.11,0,0,0,.47.44c2,.82,4,1.63,6,2.42a1,1,0,0,0,.7-.07q2.87-1.77,5.69-3.58a1.12,1.12,0,0,0,.44-.59c.4-1.36.74-2.74,1.13-4.1a.72.72,0,0,0-.18-.75c-1.28-1.45-2.55-2.92-3.83-4.37a.94.94,0,0,0-.52-.29c-1.88-.22-3.76-.41-5.63-.61a.83.83,0,0,1-.08-.12,3.14,3.14,0,0,0-.75.46c-1.1,1.22-2.19,2.46-3.28,3.7a1.76,1.76,0,0,0-.31.53c-.44,1.21-.87,2.43-1.27,3.66a1,1,0,0,0,.05.67"/><path class="cls-1" d="M132.4,358.11c.8,1.59,1.65,3.15,2.53,4.7a1.91,1.91,0,0,0,.86.78c3.58,1.49,7.16,3,10.77,4.37a1.65,1.65,0,0,0,1.27-.11q5.17-3.19,10.29-6.48a2.13,2.13,0,0,0,.8-1.05c.7-2.47,1.32-5,2-7.42a1.27,1.27,0,0,0-.32-1.34c-2.31-2.63-4.6-5.28-6.92-7.91a1.64,1.64,0,0,0-.94-.52c-3.39-.39-6.78-.74-10.17-1.1a1.64,1.64,0,0,1-.14-.22,6,6,0,0,0-1.35.83c-2,2.2-4,4.44-5.92,6.68a3.16,3.16,0,0,0-.58,1c-.78,2.2-1.56,4.4-2.28,6.61a1.77,1.77,0,0,0,.08,1.22"/><path class="cls-1" d="M179.51,385.75H68V274.21H179.51ZM78,375.77h91.57V284.19H78Z"/></svg>