<svg id="Layer_1" data-name="Layer 1" xmlns="http://www.w3.org/2000/svg" viewBox="0 0 600 600"><title>logo_black_small</title><path d="M262.74,351.6c0,18.74-9.8,30-26.18,30s-26.17-11.3-26.17-30c0-18.35,10.07-29.93,26.17-29.93s26.18,11.48,26.18,29.93m-41.43.48c0,12.7,5.28,19.48,15.25,19.48s15.25-6.68,15.25-19.48c0-13.18-5.36-20.34-15.25-20.34s-15.25,7.16-15.25,20.34"/><path d="M281.37,381.2c-9,0-12.46-3.54-12.46-12.8V321.67h9.51v45.95c0,3.37,1.13,4.67,4,4.67h1.9v8.91Z"/><path d="M325.59,321.67v59.19H317.2v-4a15.32,15.32,0,0,1-11.68,4.76c-11.77,0-18.44-8.23-18.44-22.68,0-14,6.41-22.15,17.48-22.15,5.11,0,9,1.56,11.69,4.59V321.67Zm-9.34,38.08c0-9.52-3.29-14.2-10-14.2s-9.6,4.42-9.6,13.94,2.94,13.41,9.95,13.41c6.66,0,9.61-4,9.61-13.15"/><path d="M351.23,371.66c6.6,0,10-2.36,10-6.88,0-2.63-1.22-4.42-4.23-6.11a54.88,54.88,0,0,0-7.53-3.21c-2.83-.94-3.21-1.12-4.15-1.5a32.12,32.12,0,0,1-5.74-2.92c-4.8-3-7.06-7.06-7.06-12.52,0-10.07,8-16.85,20-16.85a35.33,35.33,0,0,1,16.47,4.42l-2.72,9.14c-5.47-2.36-10.27-3.58-14.32-3.58-5.55,0-8.56,2.26-8.56,6.49,0,3.11,2.07,4.81,9,7.53l2.06.76a64.31,64.31,0,0,1,10.27,4.71c5.18,3.2,7.53,7.43,7.53,13.17,0,10.64-8.19,17.33-21.18,17.33-7.25,0-14.88-2.45-19.77-6.31l3-9.7a28.41,28.41,0,0,0,16.94,6"/><path d="M395.44,381.2c-11.51,0-17.48-6.05-17.48-18V345.9h-6.57v-8.33H378v-9h9.52v9h12.64l-3.64,8.31h-9v16.87c0,6.67,2.77,9.69,8.91,9.69h4.07v8.74Z"/><path d="M420.13,336.81c12.46,0,19.47,8.14,19.47,22.41s-7.18,22.42-19.47,22.42-19.47-8.31-19.47-22.42c0-14.27,7.1-22.41,19.47-22.41m0,36.09c6.58,0,9.87-4.42,9.87-13.15,0-9.35-3.38-14.2-9.87-14.2s-9.87,4.93-9.87,14.2c0,8.73,3.29,13.15,9.87,13.15"/><path d="M466.13,336.81c11.08,0,16.71,6.58,16.71,19.56v24.49h-9.52V357.23c0-8.3-2.43-11.68-8.4-11.68-6.58,0-9.34,3.64-9.34,12v23.28h-9.52V337.59h8.39v4.33c2.86-3.55,6.32-5.11,11.68-5.11"/><path d="M497.74,362.94c.86,6.75,4.41,10,11,10a14.19,14.19,0,0,0,9.6-3.63l4.93,6.58c-4.32,4-9,5.71-15.31,5.71-12.46,0-20-8.31-20-21.89,0-13.94,7.36-22.94,18.86-22.94,6.23,0,11.34,2.69,14.2,7.62,2,3.37,2.94,7.79,2.94,13.58a39.23,39.23,0,0,1-.35,4.93Zm16.87-7.78c0-3.55-.52-5.37-2-7.1a7.49,7.49,0,0,0-6.06-2.59c-4.93,0-8,3.28-8.82,9.69Z"/><path d="M527.81,375.36c.44.88.91,1.75,1.39,2.6a1.08,1.08,0,0,0,.48.44c2,.82,4,1.63,6,2.42a.94.94,0,0,0,.7-.07q2.86-1.77,5.7-3.58a1.17,1.17,0,0,0,.44-.59c.39-1.36.73-2.74,1.12-4.1a.72.72,0,0,0-.18-.75c-1.28-1.45-2.54-2.92-3.83-4.37a.88.88,0,0,0-.52-.29c-1.87-.22-3.75-.41-5.63-.61l-.08-.12a3.08,3.08,0,0,0-.74.46c-1.11,1.22-2.2,2.46-3.28,3.7a1.79,1.79,0,0,0-.32.53c-.43,1.21-.86,2.43-1.26,3.66a.92.92,0,0,0,0,.67"/><path d="M144,358.11c.79,1.59,1.64,3.15,2.52,4.7a1.89,1.89,0,0,0,.87.78q5.35,2.24,10.76,4.37a1.65,1.65,0,0,0,1.27-.11c3.46-2.13,6.88-4.29,10.3-6.48a2.05,2.05,0,0,0,.79-1.05c.71-2.47,1.33-5,2-7.42a1.27,1.27,0,0,0-.32-1.34c-2.31-2.63-4.6-5.28-6.92-7.91a1.7,1.7,0,0,0-.94-.52c-3.39-.39-6.79-.74-10.18-1.1l-.14-.22a6.18,6.18,0,0,0-1.34.83c-2,2.2-4,4.44-5.93,6.68a3.13,3.13,0,0,0-.57,1c-.79,2.2-1.56,4.4-2.29,6.61a1.77,1.77,0,0,0,.09,1.22"/><path d="M191.11,385.75H79.57V274.21H191.11Zm-101.56-10h91.58V284.19H89.55Z"/></svg>